<?xml version="1.0" encoding="utf-8"?>
<!-- Generator: Adobe Illustrator 16.0.3, SVG Export Plug-In . SVG Version: 6.00 Build 0)  -->
<!DOCTYPE svg PUBLIC "-//W3C//DTD SVG 1.1//EN" "http://www.w3.org/Graphics/SVG/1.1/DTD/svg11.dtd">
<svg version="1.1" id="Layer_1" xmlns="http://www.w3.org/2000/svg" xmlns:xlink="http://www.w3.org/1999/xlink" x="0px" y="0px"
	 width="60px" height="60px" viewBox="0 0 60 60" enable-background="new 0 0 60 60" xml:space="preserve">
<g>
	<polygon fill="#149ECB" points="24.885,5.356 19.402,4.715 20.405,7.066 16.244,7.29 16.826,10.039 10.518,12.284 12.517,14.234 
		7.892,15.984 10.13,18.277 7.487,21 8.677,21 7.132,24.404 8.748,24.116 7.542,32.303 8,31.856 8,36 10.464,36 8.702,40.957 
		10.476,40.803 8.821,46 9.954,46 8.702,49 9.954,49 8.702,54 10.464,54 10.911,57.188 12.15,55.933 13.913,60.055 17.208,56.563 
		17.723,57.608 21.765,54.825 22.302,57.604 26.798,51.585 27.664,53.399 32.73,51.831 32.327,53.06 36.907,51.306 39.899,53.059 
		40.793,50.182 47.84,51.306 47.641,47.699 49.982,49.563 52.211,44.475 53.633,45.687 54.48,41.403 56.649,41.574 55.566,36.979 
		58.699,37.574 54.48,33.859 56.649,33.165 49.031,28.988 49.982,28.131 44.406,24.984 46.893,25.114 43.011,17.157 45.189,18.028 
		40.883,11.862 42.42,12.065 35.743,8.218 37.27,7.667 32.242,6.772 31.732,3.38 28.67,6.096 25.314,1.694 	"/>
	<polygon fill="#107EA2" points="24.364,9.323 13.938,0.861 0,0.005 6.372,3.786 13.704,18.536 	"/>
	<polygon fill="#107EA2" points="30.424,8.018 41.775,0.261 55.143,2.263 46.547,7.337 37.699,18.048 	"/>
	<polygon fill="#43B1D5" points="26.174,7.606 25.525,8.893 23.032,8.261 23.479,10.177 18.804,11.115 18.706,12.731 15.542,13.883 
		16.336,15.114 12.454,18.518 12.182,21.155 10.293,25.217 12.762,26.153 8.763,29.917 12.762,31.111 10.55,34.768 15.484,35.191 
		14.837,37.889 18.707,40.469 16.844,43.105 20.836,44.275 45.193,42.201 49.341,32.23 43.342,29.062 43.694,25.913 44.576,26.155 
		42.547,22.006 43.342,20.716 41.268,16.098 42.193,14.201 36.105,11.031 35.928,9.84 30.191,8.394 27.544,6.974 27.279,8.818 	"/>
	
		<ellipse transform="matrix(0.99 -0.1412 0.1412 0.99 -3.2841 4.1442)" fill="#FFFFFF" cx="27.564" cy="25.217" rx="3.488" ry="5.934"/>
	
		<ellipse transform="matrix(0.99 -0.1413 0.1413 0.99 -3.5121 4.2395)" fill="#042029" cx="28.107" cy="26.859" rx="2.423" ry="4.122"/>
	
		<ellipse transform="matrix(0.986 -0.1669 0.1669 0.986 -3.349 6.5021)" fill="#FFFFFF" cx="37.006" cy="23.174" rx="3.488" ry="5.933"/>
	
		<ellipse transform="matrix(0.986 -0.1669 0.1669 0.986 -3.58 6.5957)" fill="#042029" cx="37.45" cy="24.596" rx="2.302" ry="3.916"/>
	<polygon fill="#0C5F7A" points="27.309,13 23.991,13 24.076,11.47 18.717,14 20.162,14 17.488,18.024 20,17.667 20,20.304 
		22.784,15.744 	"/>
	<polygon fill="#0C5F7A" points="32.072,11.741 33.891,12.833 31.563,13.328 36.871,13.758 40.247,16.659 39.259,15.103 
		40.793,14.77 36.177,12.065 	"/>
	<polygon fill="#72C5E0" points="41.298,27.241 46.108,28.834 45.488,29.11 50.379,31.859 49.598,32.945 54.57,38 52.83,38 
		53.158,41 52.063,41 50.377,45.76 48.576,44.552 46.723,47.299 43.953,46.641 40.494,49.085 34.4,48.297 30.447,50.521 
		30.116,48.693 25.294,50.627 24.464,48.6 21.275,49.121 21.609,45.84 19.045,46.272 22.242,41 20.417,41 23.109,35.722 
		21.183,33.201 25.266,31.875 24.464,30.876 31.572,28.671 32.072,27.243 36.48,27.337 41.418,26.153 	"/>
	<ellipse fill="#042029" cx="38.592" cy="35.191" rx="9.984" ry="4.096"/>
	<path fill="#042029" d="M13.187,37.846l1.725,6.662l0.908-0.207L17.723,48h1.418l0.297,1.082l5.025,1.545
		c0,0-4.043,3.07-5.958,3.177c-1.915,0.106-6.453-0.333-6.355-2.499C12.25,49.139,13.187,37.846,13.187,37.846z"/>
</g>
</svg>
